<svg width="22" height="24" viewBox="0 0 22 24" fill="none" xmlns="http://www.w3.org/2000/svg">
<path fill-rule="evenodd" clip-rule="evenodd" d="M16.6438 6.38943C17.1882 6.81402 17.2852 7.5995 16.8607 8.14385L10.0357 16.8938C9.80334 17.1917 9.44879 17.3685 9.0711 17.3749C8.69342 17.3812 8.33311 17.2165 8.09088 16.9266L5.16588 13.4266C4.72318 12.8969 4.79373 12.1086 5.32345 11.6659C5.85318 11.2232 6.64148 11.2938 7.08418 11.8235L9.01649 14.1356L14.8894 6.60627C15.314 6.06192 16.0995 5.96484 16.6438 6.38943Z" fill="#B5013E"/>
<path fill-rule="evenodd" clip-rule="evenodd" d="M3.6875 2.5C3.11728 2.5 2.5 3.02676 2.5 3.875V19.625C2.5 20.4732 3.11728 21 3.6875 21H18.3125C18.8827 21 19.5 20.4732 19.5 19.625V3.875C19.5 3.02676 18.8827 2.5 18.3125 2.5H3.6875ZM0 3.875C0 1.82375 1.56533 0 3.6875 0H18.3125C20.4347 0 22 1.82375 22 3.875V19.625C22 21.6763 20.4347 23.5 18.3125 23.5H3.6875C1.56533 23.5 0 21.6763 0 19.625V3.875Z" fill="#B5013E"/>
<path fill-rule="evenodd" clip-rule="evenodd" d="M3.6875 2.5C3.11728 2.5 2.5 3.02676 2.5 3.875V19.625C2.5 20.4732 3.11728 21 3.6875 21H18.3125C18.8827 21 19.5 20.4732 19.5 19.625V3.875C19.5 3.02676 18.8827 2.5 18.3125 2.5H3.6875ZM0 3.875C0 1.82375 1.56533 0 3.6875 0H18.3125C20.4347 0 22 1.82375 22 3.875V19.625C22 21.6763 20.4347 23.5 18.3125 23.5H3.6875C1.56533 23.5 0 21.6763 0 19.625V3.875Z" fill="#B5013E"/>
</svg>


